<svg xmlns="http://www.w3.org/2000/svg" width="17" height="15" viewBox="0 0 17 15">
  <defs>
    <style>
      .cls-1 {
        fill: #b5b5b5;
        fill-rule: evenodd;
      }
    </style>
  </defs>
  <path id="形狀_2_拷貝" data-name="形狀 2 拷貝" class="cls-1" d="M1092.84,457.787c-2.93,0-5.16-1.379-7.24-3.25a6.872,6.872,0,0,1-1.32-1.476,0.977,0.977,0,0,1,0-1.379c2.55-2.954,5.48-5.021,9.02-4.628,2.31,0.2,4.24,1.477,6.09,3.25a10.372,10.372,0,0,1,1.31,1.477,0.846,0.846,0,0,1,0,1.28C1098.39,455.817,1095.77,457.688,1092.84,457.787Zm-7.17-5.416c4.55,4.923,9.1,4.825,13.49,0C1094.69,447.547,1090.22,447.547,1085.67,452.371Zm6.78-3.242a2.978,2.978,0,0,1,2.77,3.249c0,1.871-1.14,3.348-2.77,3.348-1.54,0-2.68-1.477-2.68-3.25C1089.77,450.606,1090.91,449.129,1092.45,449.129Zm-5.12,10.8-0.66-.739,10.99-14.257,0.66,0.739Z" transform="translate(-1084 -444.938)"/>
</svg>
