<svg xmlns="http://www.w3.org/2000/svg" width="16.97" height="9" viewBox="0 0 16.97 9">
  <defs>
    <style>
      .cls-1 {
        fill: #daaf6d;
        fill-rule: evenodd;
      }
    </style>
  </defs>
  <path id="形狀_3_拷貝" data-name="形狀 3 拷貝" class="cls-1" d="M1092.47,608.707a2.612,2.612,0,0,1,2.62,2.709,2.64,2.64,0,0,1-2.62,2.79A2.758,2.758,0,0,1,1092.47,608.707Zm8.25,2.216a10.09,10.09,0,0,0-1.31-1.231,10.937,10.937,0,0,0-6.09-2.708c-3.55-.328-6.48,1.395-9.02,3.857a0.71,0.71,0,0,0,0,1.149c0.39,0.411.85,0.821,1.31,1.231a11.676,11.676,0,0,0,7.25,2.709c2.93-.083,5.55-1.642,7.86-3.94A0.642,0.642,0,0,0,1100.72,610.923Zm-8.26,4.112a3.578,3.578,0,1,1,3.41-3.627A3.436,3.436,0,0,1,1092.46,615.035Z" transform="translate(-1084.03 -606.938)"/>
</svg>
