<svg xmlns="http://www.w3.org/2000/svg" width="17" height="17" viewBox="0 0 17 17">
  <defs>
    <style>
      .cls-1 {
        fill: #b8151a;
        fill-rule: evenodd;
      }
    </style>
  </defs>
  <path id="形狀_18_拷貝" data-name="形狀 18 拷貝" class="cls-1" d="M469.849,373c-0.64-.322-1.279-0.647-1.921-0.966a0.453,0.453,0,0,0-.192-0.029H464.6a1.5,1.5,0,0,1-1.589-1.592v-4.373h2.213l0.048,0.049a0.34,0.34,0,0,0-.116.05,0.469,0.469,0,0,0-.115.534,0.486,0.486,0,0,0,.446.317c0.044,0,.089,0,0.133,0h5.743a1.1,1.1,0,0,0,.215-0.012A0.5,0.5,0,0,0,471.46,366q-1.378,0-2.756,0H467.08a2.611,2.611,0,0,0,1.912-2.988h3.376a1.491,1.491,0,0,1,1.61,1.25,0.267,0.267,0,0,0,.022.045v6.408a0.361,0.361,0,0,0-.026.061A1.488,1.488,0,0,1,472.417,372h-1.943c0,0.2.013,0.39,0,.576a0.553,0.553,0,0,1-.356.42h-0.266Zm-1.361-5.014c-0.979,0-1.957,0-2.936,0a0.507,0.507,0,0,0-.507.3,0.5,0.5,0,0,0,.5.7q1.882,0,3.765,0h2.123a0.5,0.5,0,0,0,.488-0.28,0.5,0.5,0,0,0-.48-0.716Q469.964,367.984,468.488,367.986Zm-8.965-2.955H458.6a1.5,1.5,0,0,1-1.6-1.6v-5.843A1.5,1.5,0,0,1,458.588,356h7.817a1.5,1.5,0,0,1,1.586,1.576q0.006,2.946.011,5.892a1.476,1.476,0,0,1-1.206,1.543,3.1,3.1,0,0,1-.595.03c-1.289,0-2.577-.008-3.866-0.006a0.477,0.477,0,0,0-.269.088q-0.843.618-1.675,1.251a0.513,0.513,0,0,1-.87-0.435C459.528,365.642,459.523,365.344,459.523,365.031Zm2.49-4.229v0.149a0.5,0.5,0,0,0,.469.526,0.515,0.515,0,0,0,.53-0.45,0.24,0.24,0,0,1,.116-0.144,1.463,1.463,0,0,0,.871-1.295,1.41,1.41,0,0,0-.779-1.379,1.5,1.5,0,0,0-1.618.1,0.483,0.483,0,0,0-.154.645,0.5,0.5,0,0,0,.644.211,2.646,2.646,0,0,1,.255-0.117,0.5,0.5,0,1,1,.282.95A0.687,0.687,0,0,0,462.013,360.8Zm0.962,1.712a0.5,0.5,0,1,0-.5.491A0.5,0.5,0,0,0,462.975,362.514Z" transform="translate(-457 -356)"/>
</svg>
