<svg xmlns="http://www.w3.org/2000/svg" width="18" height="18" viewBox="0 0 18 18">
  <defs>
    <style>
      .cls-1 {
        fill: #a47d3b;
        fill-rule: evenodd;
      }
    </style>
  </defs>
  <path id="形狀_18" data-name="形狀 18" class="cls-1" d="M1564,511.716v1.652a1.225,1.225,0,0,0-.03.188,17.72,17.72,0,0,1-.32,2.715,4.456,4.456,0,0,1-3.48,3.421c-0.77.121-1.56,0.188-2.33,0.272a0.287,0.287,0,0,0-.24.143c-0.5.729-1,1.453-1.5,2.181a1.666,1.666,0,0,1-.92.712h-0.36a1.7,1.7,0,0,1-.93-0.728c-0.49-.718-0.99-1.432-1.48-2.154a0.317,0.317,0,0,0-.27-0.159c-0.53-.048-1.07-0.109-1.6-0.158a4.593,4.593,0,0,1-2.41-.841,4.218,4.218,0,0,1-1.76-2.614,19.248,19.248,0,0,1-.29-2,20.207,20.207,0,0,1,.27-5.543,4.489,4.489,0,0,1,3.47-3.417,32.5,32.5,0,0,1,4.55-.381,37.227,37.227,0,0,1,5.19.28,4.554,4.554,0,0,1,2.31.838,4.2,4.2,0,0,1,1.75,2.583c0.14,0.729.22,1.47,0.31,2.206C1563.97,511.181,1563.98,511.449,1564,511.716Zm-9.99,2.37a2.8,2.8,0,0,0,.07.5,0.959,0.959,0,0,0,1.06.677,0.939,0.939,0,0,0,.82-0.979,0.992,0.992,0,0,1,.51-0.916c0.24-.161.49-0.317,0.73-0.483a3.028,3.028,0,0,0,1.21-1.4,2.536,2.536,0,0,0-1.28-3.143,3.726,3.726,0,0,0-3.86.171A2.842,2.842,0,0,0,1552,510.3a1.04,1.04,0,0,0,2.02.482,1.249,1.249,0,0,1,.76-0.841,1.735,1.735,0,0,1,.98-0.067,0.807,0.807,0,0,1,.7.568,0.849,0.849,0,0,1-.29.917c-0.18.152-.37,0.286-0.56,0.419-0.21.143-.43,0.266-0.64,0.413A2.151,2.151,0,0,0,1554.01,514.086Zm2.03,3.149a4.879,4.879,0,0,0-.05-0.546,0.53,0.53,0,0,0-.48-0.465,8.848,8.848,0,0,0-1.03,0,0.485,0.485,0,0,0-.46.451,6.721,6.721,0,0,0,0,1.1,0.483,0.483,0,0,0,.46.438,9.43,9.43,0,0,0,1.05,0,0.52,0.52,0,0,0,.46-0.441A4.9,4.9,0,0,0,1556.04,517.235Z" transform="translate(-1546 -505)"/>
</svg>
