<svg xmlns="http://www.w3.org/2000/svg" width="17" height="17" viewBox="0 0 17 17">
  <defs>
    <style>
      .cls-1 {
        fill: #b8151a;
        fill-rule: evenodd;
      }
    </style>
  </defs>
  <path id="形狀_19_拷貝" data-name="形狀 19 拷貝" class="cls-1" d="M492.5,415a5.1,5.1,0,1,1-5.107,5.074A5.1,5.1,0,0,1,492.5,415Zm0.558,6.88V421.67c0-.678,0-1.356,0-2.034a0.527,0.527,0,0,0-.454-0.566c-0.232-.015-0.465-0.015-0.7-0.013a0.539,0.539,0,0,0-.532.54v0.05a0.539,0.539,0,0,0,.539.54h0v1.7h0a0.54,0.54,0,0,0-.54.54v0.038a0.54,0.54,0,0,0,.54.54h1.16a0.539,0.539,0,0,0,.539-0.54v-0.048a0.539,0.539,0,0,0-.539-0.539h-0.014Zm-0.853-3.49h0a0.555,0.555,0,0,0,.556-0.555v-0.085a0.555,0.555,0,0,0-.556-0.555h0a0.555,0.555,0,0,0-.555.555v0.085A0.555,0.555,0,0,0,492.209,418.387Zm6.521,1.145c0.216,0,.41-0.009.6,0a0.561,0.561,0,0,1,.527.581c0,0.431,0,.862,0,1.293v5.479H485.139c0-.06-0.008-0.117-0.008-0.175V420.2a0.58,0.58,0,0,1,.658-0.665c0.152,0,.3,0,0.479,0a6.255,6.255,0,0,0,2.3,5.408,6.236,6.236,0,0,0,8.69-.8A6.135,6.135,0,0,0,498.73,419.532Zm-14.72,10.775h16.976a1.735,1.735,0,0,1-.248,1.273,1.127,1.127,0,0,1-.828.417c-0.041,0-.082,0-0.124,0H485.2a1.123,1.123,0,0,1-1.187-.964A5.186,5.186,0,0,1,484.01,430.307Zm15.842-2.263v1.112H485.145v-1.112h14.707Z" transform="translate(-484 -415)"/>
</svg>
