<svg xmlns="http://www.w3.org/2000/svg" width="52" height="48.97" viewBox="0 0 52 48.97">
  <defs>
    <style>
      .cls-1 {
        fill: #cccccc;
        fill-rule: evenodd;
      }
    </style>
  </defs>
  <path id="形狀_1" data-name="形狀 1" class="cls-1" d="M939,1452.31v18.84c-0.674,2.03-2.717,2.03-3.882.63-1.957-2.37-4.063-4.6-6.106-6.89-1.156-1.29-2.312-2.59-3.513-3.93q-7.424,9.57-14.8,19.07c1.529,2.02,3.03,4,4.552,5.97a0.728,0.728,0,0,0,.536.17c2.334,0.01,4.669,0,7,.01a2.055,2.055,0,1,1,0,4.11c-9.289,0-18.578.02-27.866-.01a8.109,8.109,0,0,1-7.732-6.45c-0.059-.29-0.128-0.56-0.193-0.84v-30.68a1.79,1.79,0,0,0,.091-0.28,8.131,8.131,0,0,1,7.987-7.02q17.922-.015,35.844,0a8.092,8.092,0,0,1,7.8,6.11C938.823,1451.52,938.907,1451.92,939,1452.31Zm-4.063,13.08v-0.55q0-5.7,0-11.42a4.088,4.088,0,0,0-4.254-4.3h-35.39a4.081,4.081,0,0,0-4.228,4.27q-0.006,14.265,0,28.51a4.081,4.081,0,0,0,4.227,4.27q7.209,0.015,14.42,0c0.141,0,.283-0.01.5-0.03-3.018-3.97-5.986-7.87-8.984-11.81-0.164.21-.293,0.36-0.414,0.52-0.806,1.06-1.6,2.13-2.417,3.18a2.008,2.008,0,0,1-2.879.44,2.051,2.051,0,0,1-.348-2.93c1.463-1.95,2.936-3.9,4.435-5.82a2.419,2.419,0,0,1,.966-0.71,1.948,1.948,0,0,1,2.326.77c1.638,2.15,3.266,4.29,4.9,6.44,0.107,0.14.222,0.27,0.35,0.43,0.141-.18.238-0.29,0.332-0.42q7.593-9.78,15.186-19.57a2.031,2.031,0,0,1,3.378-.11c1.023,1.14,2.043,2.29,3.065,3.43C931.686,1461.75,933.264,1463.52,934.937,1465.39ZM939,1482.06c-0.081.19-.151,0.38-0.246,0.56a2,2,0,0,1-3.234.46c-0.714-.71-1.391-1.45-2.087-2.18-0.112-.11-0.233-0.22-0.432-0.41v0.65c0,3.56.007,7.13,0,10.7a2.044,2.044,0,0,1-2.688,2.05,2.064,2.064,0,0,1-1.37-2.07c0-3.58,0-7.17,0-10.75v-0.64c-0.183.16-.3,0.25-0.4,0.35-0.761.76-1.5,1.54-2.284,2.27a1.981,1.981,0,0,1-2.833-.08,2.025,2.025,0,0,1-.012-2.83c1.4-1.44,2.8-2.89,4.278-4.25a4.881,4.881,0,0,1,6.66.1c1.418,1.37,2.756,2.83,4.1,4.27a4.845,4.845,0,0,1,.546.98v0.82Zm-31.688-23.46a6.094,6.094,0,1,1-6.1-6.18A6.162,6.162,0,0,1,907.312,1458.6Zm-6.091-2.07a2.06,2.06,0,1,0,2.027,2.06A2.055,2.055,0,0,0,901.221,1456.53Z" transform="translate(-887 -1445)"/>
</svg>
