<svg xmlns="http://www.w3.org/2000/svg" width="17" height="15" viewBox="0 0 17 15">
  <defs>
    <style>
      .cls-1 {
        fill: #b8151a;
        fill-rule: evenodd;
      }
    </style>
  </defs>
  <path id="形狀_17_拷貝" data-name="形狀 17 拷貝" class="cls-1" d="M474,306.912c-0.056.275-.095,0.554-0.17,0.823a3.876,3.876,0,0,1-1,1.732c-0.4.4-.82,0.774-1.244,1.171-0.048-.045-0.091-0.084-0.133-0.126-0.336-.335-0.665-0.68-1.011-1.006a1.641,1.641,0,0,0-2.723.8c-0.03.117-.043,0.239-0.066,0.374a1.659,1.659,0,0,0-1.611,1.593,4.653,4.653,0,0,0-.641.182,1.633,1.633,0,0,0-.526,2.631c0.292,0.309.6,0.6,0.925,0.912-0.31.276-.585,0.56-0.9,0.79a1.191,1.191,0,0,1-1.522-.135,1.224,1.224,0,0,1-.189-1.535c0.028-.044.059-0.088,0.095-0.142a1.287,1.287,0,0,1-1.619-.273,1.256,1.256,0,0,1-.023-1.548,3.531,3.531,0,0,1-.554.136,1.151,1.151,0,0,1-1.152-.6,1.186,1.186,0,0,1,.057-1.259,0.536,0.536,0,0,1,.085-0.1l3.564-3.566c0.027-.027.058-0.051,0.092-0.081,0.3,0.3.585,0.593,0.883,0.881a2.124,2.124,0,0,0,2.182.562,2.1,2.1,0,0,0,1.541-1.644,2.128,2.128,0,0,0-.569-2.035c-0.415-.436-0.848-0.855-1.273-1.283-0.042-.042-0.082-0.086-0.123-0.129a5.009,5.009,0,0,1,2.829-1.613,4.2,4.2,0,0,1,4.661,3.1c0.057,0.229.091,0.463,0.135,0.695v0.7Zm-10.258-.666-4.2,4.2a0.92,0.92,0,0,1-.071-0.059c-0.437-.438-0.892-0.861-1.307-1.319a4.187,4.187,0,0,1,2.393-7,3.969,3.969,0,0,1,3.558,1.124c0.989,0.957,1.951,1.942,2.918,2.921a1.224,1.224,0,1,1-1.741,1.721c-0.48-.475-0.954-0.954-1.429-1.432A1.85,1.85,0,0,1,463.74,306.246Zm6.014,7.549a0.608,0.608,0,0,1-.387.542,0.614,0.614,0,0,1-.707-0.121c-0.232-.22-0.455-0.451-0.681-0.677-0.243-.242-0.486-0.483-0.726-0.727a0.652,0.652,0,1,1,.92-0.921c0.455,0.451.906,0.906,1.36,1.359A0.7,0.7,0,0,1,469.754,313.8Zm-1.624,1.626a0.65,0.65,0,0,1-1.08.432c-0.23-.214-0.448-0.442-0.671-0.664-0.25-.25-0.5-0.5-0.749-0.751a0.652,0.652,0,1,1,.918-0.922c0.455,0.451.906,0.906,1.36,1.358A0.707,0.707,0,0,1,468.13,315.421Zm1.208-5.412a1.9,1.9,0,0,1,.434.24c0.479,0.457.945,0.929,1.409,1.4a0.65,0.65,0,1,1-.923.915q-0.708-.7-1.4-1.407a0.62,0.62,0,0,1-.139-0.717,0.639,0.639,0,0,1,.6-0.392Z" transform="translate(-457 -302)"/>
</svg>
