<svg xmlns="http://www.w3.org/2000/svg" width="17" height="14" viewBox="0 0 17 14">
  <defs>
    <style>
      .cls-1 {
        fill: #a47d3b;
        fill-rule: evenodd;
      }
    </style>
  </defs>
  <path id="形狀_13" data-name="形狀 13" class="cls-1" d="M475,981.813a3.393,3.393,0,0,1-.316,1.016,4.549,4.549,0,0,1-1.346,1.513q-2.637,1.932-5.28,3.855a7.361,7.361,0,0,1-.888.538,1.445,1.445,0,0,1-1.477-.068,10.494,10.494,0,0,1-.9-0.584c-1.689-1.229-3.373-2.467-5.06-3.7a4.565,4.565,0,0,1-1.544-1.825,1.984,1.984,0,0,1,.242-2.075,1.119,1.119,0,0,1,.794-0.454,2.79,2.79,0,0,1,.364-0.029h13.821a1.51,1.51,0,0,1,1.443.92,3.12,3.12,0,0,1,.148.475v0.418Zm0,10.37c-0.048-.047-0.1-0.092-0.145-0.141l-3.966-4.158c-0.038-.04-0.076-0.082-0.123-0.134,0.053-.042.1-0.081,0.146-0.116,0.944-.678,1.9-1.344,2.828-2.039,0.439-.328.841-0.71,1.26-1.068v7.656Zm-16.458,1.425,4.809-5.043c0.172,0.128.352,0.258,0.528,0.395a7.076,7.076,0,0,0,1.671,1.018,2.54,2.54,0,0,0,2.076-.071,9.365,9.365,0,0,0,1.731-1.12c0.1-.073.2-0.148,0.281-0.211l4.81,5.043a1.323,1.323,0,0,1-.8.366,2.4,2.4,0,0,1-.281.011q-6.87,0-13.739,0A1.5,1.5,0,0,1,458.545,993.608Zm-0.524-9.037c1.259,1.155,2.713,2.027,4.062,3.051l0.132,0.1-4.194,4.395v-7.543Z" transform="translate(-458 -980)"/>
</svg>
