<svg xmlns="http://www.w3.org/2000/svg" width="35" height="32" viewBox="0 0 35 32">
  <defs>
    <style>
      .cls-1 {
        fill: #b8151a;
        fill-rule: evenodd;
      }
    </style>
  </defs>
  <path id="形狀_2_拷貝" data-name="形狀 2 拷貝" class="cls-1" d="M550.822,471.726H558.4v4.642a0.675,0.675,0,1,0,1.334,0V471.7c0.928,0,1.81,0,2.692,0a2.649,2.649,0,0,0,.51-0.051,0.66,0.66,0,0,0,.566-0.631,0.675,0.675,0,0,0-.569-0.664,2.148,2.148,0,0,0-.473-0.051c-0.885,0-1.77,0-2.691,0v-15.3A15.987,15.987,0,0,1,569,458.414l-0.012.123h-0.7c-0.319,0-.64-0.009-0.959,0a0.74,0.74,0,0,0-.807.837c0,0.477.008,0.956-.007,1.433a0.585,0.585,0,0,1-.132.353c-0.955,1.023-1.927,2.029-2.879,3.054a1.475,1.475,0,0,0,.017,2.065c0.847,0.922,1.71,1.83,2.554,2.755a1.012,1.012,0,0,0,1.154.349,0.911,0.911,0,0,0,.576-1c0-.5.009-0.5,0.491-0.5,2.055,0,4.11,0,6.165,0a0.351,0.351,0,0,1,.445.341c0.08,1.154.166,2.308,0.243,3.463a0.785,0.785,0,0,1-.06.248c-4.791-2.594-9.057-2.187-12.636,2.116a8.087,8.087,0,0,0-1.685,4.118,8.708,8.708,0,0,0,.524,4.382,9.233,9.233,0,0,0,2.641,3.7,15.03,15.03,0,0,1-4.2.742v-5.761a0.678,0.678,0,1,0-1.334.014v5.69a5.71,5.71,0,0,1-.658-0.135,6.68,6.68,0,0,1-3.174-2.4,17.354,17.354,0,0,1-3.088-7.05c-0.268-1.221-.418-2.468-0.59-3.707-0.072-.519-0.065-1.048-0.088-1.573A2.744,2.744,0,0,1,550.822,471.726Zm18.923,15.265a7.656,7.656,0,1,1,7.7-8.175A7.617,7.617,0,0,1,569.745,486.991Zm0.062-6.952c0-.009,0-0.019,0-0.028,0.332,0,.665,0,1,0a0.754,0.754,0,0,1,.885.861c0,0.331,0,.661,0,0.992a0.763,0.763,0,0,1-.858.861q-1.071.007-2.141,0a0.824,0.824,0,0,1-.9-0.851c-0.011-.183,0-0.368-0.009-0.551a0.63,0.63,0,0,0-1.242-.1,2.4,2.4,0,0,0,.677,2.257,2,2,0,0,0,1.491.514,0.318,0.318,0,0,1,.4.4,0.932,0.932,0,0,0,.007.4,1.01,1.01,0,0,0,.3.514,0.841,0.841,0,0,0,.612.054,0.581,0.581,0,0,0,.362-0.653c-0.017-.809.034-0.7,0.693-0.726a2,2,0,0,0,1.866-1.645,7.877,7.877,0,0,0,.068-1.572,2.006,2.006,0,0,0-1.895-2.029c-0.814-.092-1.644-0.047-2.467-0.061a0.786,0.786,0,0,1-.853-0.771,8.819,8.819,0,0,1,0-1.138,0.8,0.8,0,0,1,.868-0.805q1.089-.007,2.177,0a0.771,0.771,0,0,1,.853.87,3.041,3.041,0,0,0,.075.688,0.619,0.619,0,0,0,1.167.033,2.362,2.362,0,0,0,.082-0.721,2.121,2.121,0,0,0-1.773-2.128c-0.8-.083-0.81-0.083-0.866-0.859a0.6,0.6,0,0,0-.542-0.6,0.577,0.577,0,0,0-.664.408,1.478,1.478,0,0,0-.066.465c-0.009.555,0,.555-0.563,0.574a1.959,1.959,0,0,0-1.951,1.583,8.635,8.635,0,0,0-.071,1.643,2.03,2.03,0,0,0,1.779,2.018C568.8,480,569.3,480.009,569.807,480.039Zm-19.021-9.773c0.032-.646.012-1.283,0.1-1.905,0.212-1.441.409-2.89,0.738-4.307a16.39,16.39,0,0,1,2.914-6.417,6.521,6.521,0,0,1,3.406-2.494,0.826,0.826,0,0,1,.422-0.042v15.165h-7.584Zm3.51-14.45c-0.337.415-.693,0.817-1.01,1.247a18.908,18.908,0,0,0-3.013,6.777,24.514,24.514,0,0,0-.744,4.857c-0.019.439-.053,0.877-0.066,1.316a0.243,0.243,0,0,1-.28.289c-1.993,0-3.985,0-5.978,0a1.007,1.007,0,0,1-.2-0.047,16.02,16.02,0,0,1,11.228-14.515ZM543.005,471.7h5.906c0.557,0,.529,0,0.553.567a23.771,23.771,0,0,0,3.319,11.929c0.44,0.7.983,1.335,1.471,1.99-1.246.295-5.989-2.907-7.917-5.406A15.717,15.717,0,0,1,543.005,471.7Zm23.361-4.16c-0.127-.161-0.243-0.332-0.381-0.482-0.472-.516-0.952-1.024-1.429-1.535-0.134-.142-0.248-0.288-0.074-0.475q0.927-1,1.859-1.988a0.442,0.442,0,0,1,.124-0.057,1.073,1.073,0,0,1,.052.162,0.667,0.667,0,0,0,.783.682c1.819,0,3.638,0,5.458,0,0.478,0,.956.028,1.434,0.017a0.37,0.37,0,0,1,.439.461c-0.016.611-.015,1.224,0.011,1.835a0.381,0.381,0,0,1-.473.461c-2.225-.011-4.451-0.006-6.676,0a0.785,0.785,0,0,0-1.012.818ZM576,463.407c-0.037-.114-0.068-0.19-0.086-0.269a0.607,0.607,0,0,0-.686-0.562c-1.07,0-2.14,0-3.209,0-1.267,0-2.533-.01-3.8.006a0.346,0.346,0,0,1-.426-0.422q0.023-.954,0-1.909a0.329,0.329,0,0,1,.408-0.4c2.275,0.011,4.549,0,6.824.006a0.731,0.731,0,0,0,.915-0.7,1.292,1.292,0,0,1,.121-0.193c0.165,0.2.3,0.379,0.454,0.544q0.638,0.687,1.288,1.364a0.377,0.377,0,0,1,.019.635c-0.547.545-1.056,1.127-1.583,1.691A2.567,2.567,0,0,1,576,463.407Z" transform="translate(-543 -455)"/>
</svg>
