<svg xmlns="http://www.w3.org/2000/svg" width="15" height="17" viewBox="0 0 15 17">
  <defs>
    <style>
      .cls-1 {
        fill: #b8151a;
        fill-rule: evenodd;
      }
    </style>
  </defs>
  <path id="形狀_4" data-name="形狀 4" class="cls-1" d="M461.773,487c-0.2-.041-0.412-0.07-0.612-0.123a2.7,2.7,0,0,1-2.15-2.547,8.6,8.6,0,0,1,.623-3.839,3.573,3.573,0,0,1,1.667-1.9,3.428,3.428,0,0,1,1.637-.371,1.307,1.307,0,0,1,.538.175c0.266,0.137.514,0.307,0.772,0.458a4.2,4.2,0,0,0,4.516,0c0.209-.123.422-0.24,0.618-0.379a1.569,1.569,0,0,1,1.184-.228,3.329,3.329,0,0,1,2.548,1.73,6.819,6.819,0,0,1,.819,2.757,13,13,0,0,1,.069,1.49,2.786,2.786,0,0,1-2.659,2.75,0.69,0.69,0,0,0-.114.031h-9.456Zm5.027-17c0.234,0.044.469,0.082,0.7,0.134a4.214,4.214,0,0,1,3.17,3.327,3.794,3.794,0,0,1-.619,2.824,4.293,4.293,0,0,1-3.386,1.892,4.385,4.385,0,0,1-4.241-2.406,3.965,3.965,0,0,1,.658-4.324,4.364,4.364,0,0,1,2.409-1.363c0.165-.031.332-0.056,0.5-0.084H466.8Z" transform="translate(-459 -470)"/>
</svg>
