<svg xmlns="http://www.w3.org/2000/svg" width="17" height="17" viewBox="0 0 17 17">
  <defs>
    <style>
      .cls-1 {
        fill: #a47d3b;
        fill-rule: evenodd;
      }
    </style>
  </defs>
  <path id="形狀_10" data-name="形狀 10" class="cls-1" d="M462.3,866h7.365v3.719a0.519,0.519,0,0,0,.6.6H474v11.093A1.5,1.5,0,0,1,472.4,883H464.67a5.554,5.554,0,0,0,2.313-3.985h0.663q1.732,0,3.465,0a0.509,0.509,0,0,0,.511-0.3,0.5,0.5,0,0,0-.5-0.7q-1.974,0-3.948,0h-0.2a5.635,5.635,0,0,0-.571-1.992h4.726a0.5,0.5,0,1,0-.011-1q-2.574,0-5.148,0a0.459,0.459,0,0,1-.382-0.169,5.348,5.348,0,0,0-3.583-1.8c-0.328-.029-0.661,0-0.993,0a0.853,0.853,0,0,1-.011-0.089c0-1.842,0-3.685,0-5.528a1.322,1.322,0,0,1,.579-1.123A4.31,4.31,0,0,1,462.3,866Zm5.218,6.044q-1.832,0-3.663,0a0.5,0.5,0,0,0-.128.982,1.023,1.023,0,0,0,.215.013h7.192a0.5,0.5,0,1,0,0-1Q469.326,872.039,467.52,872.042Zm3.16-5.686,2.965,2.955H470.68v-2.955Zm-9.179,7.678a4.482,4.482,0,1,0,4.5,4.488A4.5,4.5,0,0,0,461.5,874.034Zm0.669,6.375c-0.088.022-.18,0.03-0.279,0.046v0.177a0.388,0.388,0,0,1-.776,0v-0.175a1.429,1.429,0,0,1-.992-0.559,0.39,0.39,0,0,1,.327-0.6,0.4,0.4,0,0,1,.341.2,0.414,0.414,0,0,0,.421.181c0.218,0,.436,0,0.653,0a0.386,0.386,0,1,0,0-.771,8,8,0,0,1-.93-0.022,1.136,1.136,0,0,1-.984-1.206,1.165,1.165,0,0,1,1.087-1.085l0.071-.006V876.4a0.386,0.386,0,0,1,.771,0v0.183a1.181,1.181,0,0,1,.948.491c0.016,0.021.031,0.043,0.045,0.065a0.393,0.393,0,0,1-.663.422,0.4,0.4,0,0,0-.11-0.123,0.706,0.706,0,0,0-.343-0.075c-0.21-.011-0.42,0-0.629,0a0.386,0.386,0,1,0,0,.771c0.258,0,.516,0,0.774,0A1.156,1.156,0,0,1,462.17,880.409Z" transform="translate(-457 -866)"/>
</svg>
