<svg id="群組_69" data-name="群組 69" xmlns="http://www.w3.org/2000/svg" xmlns:xlink="http://www.w3.org/1999/xlink" width="54.07" height="52.718" viewBox="0 0 54.07 52.718">
  <defs>
    <style>
      .cls-1 {
        fill: #c09f68;
        filter: url(#filter);
      }

      .cls-1, .cls-2 {
        fill-rule: evenodd;
      }

      .cls-2 {
        fill: #b8151a;
        filter: url(#filter-2);
      }
    </style>
    <filter id="filter" x="1181.81" y="278.563" width="54.07" height="42.906" filterUnits="userSpaceOnUse">
      <feFlood result="flood" flood-color="#fff"/>
      <feComposite result="composite" operator="in" in2="SourceGraphic"/>
      <feBlend result="blend" in2="SourceGraphic"/>
    </filter>
    <filter id="filter-2" x="1211" y="308.219" width="22.72" height="23.062" filterUnits="userSpaceOnUse">
      <feFlood result="flood" flood-color="#fff"/>
      <feComposite result="composite" operator="in" in2="SourceGraphic"/>
      <feBlend result="blend" in2="SourceGraphic"/>
    </filter>
  </defs>
  <path id="形狀_1" data-name="形狀 1" class="cls-1" d="M1235.88,312.571c-0.26-.4-0.51-0.807-0.76-1.206a15.37,15.37,0,0,0-6.85-5.837c-0.13-.057-0.26-0.115-0.46-0.206a8.739,8.739,0,0,1,.84-0.589c0.86-.449,1.72-0.885,2.6-1.291a0.536,0.536,0,0,0,.41-0.564q-0.015-6.3,0-12.6a0.48,0.48,0,0,0-.38-0.528,13.379,13.379,0,0,1-7.37-6.541,0.561,0.561,0,0,0-.57-0.355q-14.475.013-28.97,0a0.591,0.591,0,0,0-.6.386,13.31,13.31,0,0,1-7.28,6.484,0.606,0.606,0,0,0-.45.7q0.015,6.165-.01,12.331a0.639,0.639,0,0,0,.5.715,13.335,13.335,0,0,1,7.21,6.42,0.71,0.71,0,0,0,.73.44q7.59-.018,15.2-0.008h0.58c-0.51.857-.99,1.656-1.44,2.473a6.06,6.06,0,0,0-.57,1.266,0.7,0.7,0,0,1-.83.562q-11.775-.024-23.54-0.011a1.78,1.78,0,0,1-2.05-2.087q0-15.87-.01-31.739a2.082,2.082,0,0,1,1.28-2.21h51.52a2.335,2.335,0,0,1,1.27,1.287v32.711Zm-27.03-27.992c4.4,0,8.79.007,13.19-.011a1.084,1.084,0,0,1,1.11.72,12.11,12.11,0,0,0,6.28,5.548,0.666,0.666,0,0,1,.54.726q-0.015,5.041,0,10.081a0.647,0.647,0,0,1-.39.645c-1.16.7-2.29,1.457-3.44,2.176a0.943,0.943,0,0,1-.6.176,15.027,15.027,0,0,0-13.47,3.752,0.909,0.909,0,0,1-.56.2q-8.07.017-16.15-.006a0.776,0.776,0,0,1-.56-0.333,15.464,15.464,0,0,0-6.72-6,0.506,0.506,0,0,1-.35-0.562q0.015-5.094,0-10.188a0.543,0.543,0,0,1,.37-0.6,15,15,0,0,0,6.66-5.974,0.715,0.715,0,0,1,.73-0.358Q1202.165,284.583,1208.85,284.579Zm-1.44,4.7c-0.11.013-.17,0.021-0.23,0.025a4.372,4.372,0,0,0-4.07,4.113,4.267,4.267,0,0,0,3.66,4.55,27.724,27.724,0,0,0,3.4.082,1.46,1.46,0,1,1,.02,2.916c-0.79.007-1.58,0-2.38,0a1.537,1.537,0,0,1-1.6-.695,1.433,1.433,0,0,0-1.25-.732h0a1.458,1.458,0,0,0-1.25,2.191,3.459,3.459,0,0,0,.36.526,4.375,4.375,0,0,0,3.35,1.644v0.69a1.437,1.437,0,0,0,1.43,1.445h0.03a1.435,1.435,0,0,0,1.42-1.445v-0.666c0.38-.067.74-0.1,1.08-0.193a4.378,4.378,0,0,0-1.05-8.6c-0.96-.015-1.92,0-2.87-0.006a1.456,1.456,0,1,1-.02-2.912c0.94-.011,1.88-0.043,2.82.018a1.832,1.832,0,0,1,1.03.446,1.186,1.186,0,0,1,.21.266,1.412,1.412,0,0,0,1.23.7h0a1.47,1.47,0,0,0,1.23-2.243c-0.05-.082-0.1-0.164-0.16-0.244a4.368,4.368,0,0,0-3.54-1.888v-0.692a1.436,1.436,0,0,0-1.42-1.446h0a1.438,1.438,0,0,0-1.43,1.446v0.7Zm-0.02,27.047c-0.1,1.744-.19,3.412-0.28,5.148h-23.3a1.76,1.76,0,0,1-1.99-2.036v-3.567a6.222,6.222,0,0,0,3.33.452q10.845,0.012,21.68,0h0.56Z" transform="translate(-1181.81 -278.563)"/>
  <path id="形狀_1_拷貝" data-name="形狀 1 拷貝" class="cls-2" d="M1233.65,318.551a11.554,11.554,0,0,0-2.7-6.322c-0.05-.064-0.11-0.129-0.17-0.193a2.356,2.356,0,0,0-.16-0.178c-0.02-.028-0.05-0.055-0.07-0.082-0.06-.056-0.11-0.111-0.16-0.165-0.07-.065-0.13-0.13-0.2-0.194s-0.13-.126-0.2-0.188-0.13-.123-0.2-0.184a11.217,11.217,0,0,0-1.78-1.284l-0.24-.136c-0.16-.089-0.32-0.173-0.49-0.255-0.08-.039-0.16-0.079-0.25-0.117s-0.17-.077-0.25-0.113c-0.17-.073-0.34-0.142-0.52-0.207l-0.24-.085c-0.27-.1-0.54-0.178-0.82-0.251-0.09-.024-0.18-0.046-0.27-0.067s-0.18-.04-0.27-0.059l-0.03-.007c-0.09-.018-0.17-0.034-0.26-0.05s-0.19-.032-0.28-0.046c-0.07-.013-0.15-0.023-0.22-0.033-0.04-.006-0.08-0.011-0.12-0.014q-0.09-.014-0.18-0.021a0.716,0.716,0,0,0-.08-0.008c-0.08-.01-0.16-0.017-0.24-0.023h-0.02c-0.08-.007-0.17-0.012-0.25-0.017l-0.05,0-0.16-.007-0.14,0c-0.09,0-.18,0-0.27,0s-0.21,0-.31,0-0.19.006-.28,0.011-0.21.012-.31,0.02c-0.08.006-.17,0.015-0.26,0.024s-0.19.021-.28,0.033a11.378,11.378,0,0,0-8.79,6.438c-0.16.335-.3,0.681-0.43,1.034a12.732,12.732,0,0,0-.46,1.64,11.336,11.336,0,0,0-.19,1.437,2.023,2.023,0,0,0-.02.246c-0.01.213-.02,0.426-0.02,0.641v0.22a1.786,1.786,0,0,1,.01.231,11.553,11.553,0,0,0,5.52,9.447c0.01,0,.01.006,0.02,0.009,0.08,0.053.17,0.1,0.26,0.156s0.19,0.108.29,0.16a0.2,0.2,0,0,0,.02.011c0.06,0.031.12,0.059,0.17,0.089l0.06,0.028,0.15,0.072,0.18,0.088c0.07,0.033.14,0.065,0.22,0.1s0.19,0.084.29,0.124c0.26,0.1.52,0.2,0.79,0.281a11.273,11.273,0,0,0,2.79.5c0.09,0,.19.008,0.29,0.011s0.19,0,.29,0,0.2,0,.3,0l0.22-.009c0.06,0,.11-0.006.17-0.009,0.08,0,.16-0.01.24-0.017s0.15-.013.23-0.022c0.15-.015.29-0.033,0.44-0.054,0.13-.019.26-0.041,0.39-0.065l0.03,0a11.459,11.459,0,0,0,9.24-9.891,11.648,11.648,0,0,0,.09-1.455Q1233.71,319.15,1233.65,318.551Zm-11.28,6.94h-0.01a1.432,1.432,0,0,1-1.42-1.439V321.2h-2.81a1.4,1.4,0,0,1-1-.422,1.47,1.47,0,0,1-.41-1.017,1.424,1.424,0,0,1,1.41-1.439h2.8v-2.858a1.426,1.426,0,0,1,1.42-1.439h0.01a1.424,1.424,0,0,1,1.41,1.439v2.842h2.82a1.424,1.424,0,0,1,1.41,1.439v0.011a1.424,1.424,0,0,1-1.41,1.439h-2.8v2.858A1.426,1.426,0,0,1,1222.37,325.491Z" transform="translate(-1181.81 -278.563)"/>
</svg>
