<svg xmlns="http://www.w3.org/2000/svg" width="15" height="17" viewBox="0 0 15 17">
  <defs>
    <style>
      .cls-1 {
        fill: #b8151a;
        fill-rule: evenodd;
      }
    </style>
  </defs>
  <path id="形狀_6" data-name="形狀 6" class="cls-1" d="M473.992,596.183a5.117,5.117,0,0,1-.118.768l-0.063.01c-0.051-.048-0.1-0.093-0.153-0.142q-1.112-1.116-2.22-2.232a0.565,0.565,0,0,0-.8-0.077,0.619,0.619,0,0,0-.021.924c0.565,0.572,1.137,1.137,1.7,1.713,0.218,0.223.414,0.471,0.641,0.732a4.938,4.938,0,0,1-.747.111C470.459,598,468.7,598,466.951,598c-2.054,0-4.108,0-6.162-.006a5.61,5.61,0,0,1-.8-0.118c0.168-.182.289-0.321,0.418-0.451q0.984-.995,1.974-1.985a0.617,0.617,0,0,0,.173-0.617,0.557,0.557,0,0,0-.42-0.422,0.571,0.571,0,0,0-.573.189q-1.107,1.119-2.22,2.233l-0.157.157a1.691,1.691,0,0,1-.182-0.788V593.91c0-2.021,0-4.043,0-6.064a1.919,1.919,0,0,1,.745-1.609c0.077-.062.155-0.125,0.232-0.189v1.67l5.566,5.293a1.309,1.309,0,0,0,.948.427,1.4,1.4,0,0,0,.969-0.429l5.56-5.287v-1.679q0.165,0.136.327,0.274a1.782,1.782,0,0,1,.648,1.409Q474,591.954,473.992,596.183Zm-2.037-12.794-1.937-2.026a1.079,1.079,0,0,0-.777-0.336h-6.805a1.756,1.756,0,0,0-1.716,1.794v4.554l5.334,5.073a0.587,0.587,0,0,0,.894,0l5.329-5.069V584.2A1.169,1.169,0,0,0,471.955,583.389Zm-4.1,4.1c-0.183,0-.529,0-0.739,0,0,0.2,0,.742,0,0.933a0.618,0.618,0,1,1-1.226,0c0-.185,0-0.72,0-0.936-0.213,0-.571,0-0.761,0a0.64,0.64,0,0,1,.007-1.28c0.189,0,.547,0,0.754,0,0-.218,0-0.751,0-0.949a0.614,0.614,0,1,1,1.224,0c0,0.2,0,.732,0,0.953,0.2,0,.556,0,0.746,0A0.641,0.641,0,1,1,467.85,587.485Zm3.118-3.148h-1.55a0.374,0.374,0,0,1-.366-0.382v-1.62a0.364,0.364,0,0,1,.625-0.271l1.55,1.621A0.384,0.384,0,0,1,470.968,584.337Zm-1.272-3.31L469.67,581" transform="translate(-459 -581)"/>
</svg>
