<svg xmlns="http://www.w3.org/2000/svg" width="17" height="12" viewBox="0 0 17 12">
  <defs>
    <style>
      .cls-1 {
        fill: #b8151a;
        fill-rule: evenodd;
      }
    </style>
  </defs>
  <path id="形狀_5" data-name="形狀 5" class="cls-1" d="M466.5,529.005c1.681,0,3.361,0,5.041,0a0.636,0.636,0,0,1,.587.3c0.907,1.336,1.823,2.666,2.734,4a0.493,0.493,0,0,1-.1.767q-3.93,3.372-7.862,6.742a0.508,0.508,0,0,1-.788,0l-7.863-6.741a0.491,0.491,0,0,1-.106-0.765q1.374-2.01,2.747-4.019a0.6,0.6,0,0,1,.549-0.285C463.12,529.007,464.808,529.005,466.5,529.005Zm0,8.049-0.323-.275q-2.036-1.746-4.071-3.49a0.623,0.623,0,0,0-.9,0,0.585,0.585,0,0,0,.109.89q2.343,2.013,4.69,4.021a0.645,0.645,0,0,0,.994,0c0.633-.539,1.263-1.082,1.894-1.623q1.38-1.183,2.762-2.367a0.65,0.65,0,0,0,.289-0.594,0.555,0.555,0,0,0-.386-0.48,0.63,0.63,0,0,0-.653.141q-1.334,1.149-2.671,2.292Z" transform="translate(-458 -529)"/>
</svg>
