<svg xmlns="http://www.w3.org/2000/svg" width="17" height="17" viewBox="0 0 17 17">
  <defs>
    <style>
      .cls-1 {
        fill: #a47d3b;
        fill-rule: evenodd;
      }
    </style>
  </defs>
  <path id="形狀_9" data-name="形狀 9" class="cls-1" d="M462.3,754h7.365v3.718a0.519,0.519,0,0,0,.6.6H474v11.094a1.5,1.5,0,0,1-1.6,1.59h-7.733a5.554,5.554,0,0,0,2.314-3.984h0.662c1.155,0,2.311,0,3.466,0a0.511,0.511,0,0,0,.511-0.3,0.5,0.5,0,0,0-.5-0.7h-4.147a5.662,5.662,0,0,0-.571-1.992h4.726a0.5,0.5,0,1,0-.012-1q-2.574,0-5.148,0a0.464,0.464,0,0,1-.381-0.169,5.343,5.343,0,0,0-3.583-1.795c-0.328-.029-0.661,0-0.994,0,0-.047-0.01-0.068-0.01-0.089,0-1.843,0-3.686,0-5.528a1.322,1.322,0,0,1,.578-1.123A4.24,4.24,0,0,1,462.3,754Zm5.218,6.043q-1.832,0-3.663,0a0.5,0.5,0,0,0-.128.981,1.023,1.023,0,0,0,.215.013h7.192a0.5,0.5,0,1,0,0-1C469.928,760.04,468.724,760.042,467.52,760.042Zm-6.02,1.992a4.483,4.483,0,1,1-4.5,4.476A4.5,4.5,0,0,1,461.5,762.034Zm0.5,3.984c0-.5,0-0.979,0-1.459a0.5,0.5,0,1,0-1,0q0,0.962,0,1.925a0.5,0.5,0,0,0,.528.534c0.422,0,.844,0,1.266,0a0.5,0.5,0,1,0-.005-1C462.537,766.017,462.282,766.018,462,766.018Zm8.677-11.661,2.966,2.954h-2.966v-2.954Z" transform="translate(-457 -754)"/>
</svg>
