<svg xmlns="http://www.w3.org/2000/svg" width="17" height="16" viewBox="0 0 17 16">
  <defs>
    <style>
      .cls-1 {
        fill: #b8151a;
        fill-rule: evenodd;
      }
    </style>
  </defs>
  <path id="形狀_7" data-name="形狀 7" class="cls-1" d="M504.362,643.958a1.961,1.961,0,0,1,1.568,1.457,2.067,2.067,0,0,1,.064.544q0.006,4.508,0,9.016a1.954,1.954,0,0,1-2.024,2.02q-6.476,0-12.951,0A1.955,1.955,0,0,1,489,654.973q0-5.2,0-10.4a4.731,4.731,0,0,1,.354-1.871,2.643,2.643,0,0,1,2.228-1.654,5.565,5.565,0,0,1,.753-0.043q4.964,0,9.928,0a1.964,1.964,0,0,1,2.1,2.088C504.363,643.373,504.362,643.658,504.362,643.958Zm-13.971-.035h12.664v-0.849a0.676,0.676,0,0,0-.779-0.768q-4.986,0-9.97,0c-0.116,0-.232,0-0.347.006A1.545,1.545,0,0,0,490.391,643.923Zm13.317,6.7a1.471,1.471,0,1,0-1.479,1.476A1.472,1.472,0,0,0,503.708,650.622Z" transform="translate(-489 -641)"/>
</svg>
