<svg xmlns="http://www.w3.org/2000/svg" width="17" height="15" viewBox="0 0 17 15">
  <defs>
    <style>
      .cls-1 {
        fill: #a47d3b;
        fill-rule: evenodd;
      }
    </style>
  </defs>
  <path id="形狀_11" data-name="形狀 11" class="cls-1" d="M470.252,814.283h-2.376a2.206,2.206,0,0,0,.259-1.509,2.184,2.184,0,0,0-.764-1.291,2.012,2.012,0,0,0-1.209-.483,4.206,4.206,0,0,1-4.459.32,2.144,2.144,0,0,0-.882,1.085,2.2,2.2,0,0,0,.152,1.878h-0.206c-0.726,0-1.451,0-2.176,0a0.547,0.547,0,0,0-.591.607v2.055a0.553,0.553,0,0,0,.607.626h7.615c0.059-.068.121-0.136,0.184-0.2a4.318,4.318,0,0,1,2.658-1.332,4.5,4.5,0,0,1,.543-0.032,4.125,4.125,0,0,1,1.244.187V814.9A0.551,0.551,0,0,0,470.252,814.283Zm-6.366,0c-0.391,0-.758.012-1.125,0a1.1,1.1,0,0,1,.009-2.186,1.059,1.059,0,0,1,1.112,1C463.905,813.48,463.886,813.873,463.886,814.281Zm2.172,0c-0.358.007-.714,0-1.091,0,0-.422-0.026-0.828.008-1.228a1.051,1.051,0,0,1,1.14-.961A1.1,1.1,0,0,1,466.058,814.281Zm-2.179,9.866h-4.19a0.555,0.555,0,0,1-.617-0.632q0-2.336,0-4.672v-0.164h4.807v5.468Zm2.893,0h-1.8v-5.474h0.543a4.6,4.6,0,0,0-.389,1.568A4.637,4.637,0,0,0,466.772,824.146ZM475,825.334a0.811,0.811,0,0,1-.238.462,0.721,0.721,0,0,1-1.049-.054q-0.976-1-1.95-2a0.433,0.433,0,0,1-.051-0.075c-0.244.13-.455,0.265-0.683,0.361a3.508,3.508,0,0,1-2.972-.04,3.622,3.622,0,0,1-1.684-1.6,3.815,3.815,0,0,1,.609-4.443,3.6,3.6,0,0,1,4.335-.673,3.667,3.667,0,0,1,1.363,1.293,3.809,3.809,0,0,1,.069,3.915,0.12,0.12,0,0,0,.021.175c0.632,0.64,1.258,1.287,1.89,1.928a1.076,1.076,0,0,1,.34.568v0.182Zm-2.93-4.749a2.482,2.482,0,1,0-2.485,2.535A2.517,2.517,0,0,0,472.068,820.585Z" transform="translate(-458 -811)"/>
</svg>
