<svg xmlns="http://www.w3.org/2000/svg" width="35" height="35.031" viewBox="0 0 35 35.031">
  <defs>
    <style>
      .cls-1 {
        fill: #b8151a;
        fill-rule: evenodd;
      }
    </style>
  </defs>
  <path id="形狀_3_拷貝" data-name="形狀 3 拷貝" class="cls-1" d="M563.337,480.2v-0.487c0-2.377.007-4.755,0-7.133a2.838,2.838,0,0,0-5.672-.2c-0.037,2.44-.012,4.882-0.014,7.323v0.487c-0.15.011-.271,0.027-0.393,0.027-3.219,0-6.437.007-9.656,0a4.439,4.439,0,0,1-4.551-3.747,5.335,5.335,0,0,1-.058-0.912q0-7.953,0-15.907a4.441,4.441,0,0,1,3.744-4.591,4.985,4.985,0,0,1,.873-0.059q12.882,0,25.763,0a4.433,4.433,0,0,1,4.57,3.769,5.089,5.089,0,0,1,.055.873q0,7.973,0,15.946a4.437,4.437,0,0,1-3.764,4.574,4.615,4.615,0,0,1-.8.055q-4.866.006-9.732,0C563.6,480.219,563.5,480.209,563.337,480.2Zm12.192-17.087c0-1.357,0-2.676,0-3.995a0.6,0.6,0,0,0-.033-0.149,2.045,2.045,0,0,0-2.179-1.529H547.667c-0.1,0-.2,0-0.305.006a1.977,1.977,0,0,0-1.92,1.941c-0.024,1.182-.008,2.365-0.006,3.548a0.787,0.787,0,0,0,.043.179h30.05Zm-24,8.158c0.8,0,1.6.006,2.4,0a1.22,1.22,0,1,0-.014-2.438q-2.385-.009-4.77,0a1.221,1.221,0,1,0,.014,2.439C549.954,471.276,550.743,471.272,551.532,471.272Zm-0.814,4.063c0.534,0,1.067.008,1.6,0a1.216,1.216,0,1,0,.041-2.431q-1.638-.036-3.277,0a1.216,1.216,0,1,0,.036,2.431C549.651,475.343,550.185,475.335,550.718,475.335Zm11,10.5c0.97-.973,1.856-1.866,2.748-2.754a1.179,1.179,0,0,1,1.3-.3,1.134,1.134,0,0,1,.794,1.022,1.152,1.152,0,0,1-.34.974c-1.618,1.62-3.232,3.243-4.86,4.851a1.175,1.175,0,0,1-1.741-.015q-2.426-2.4-4.83-4.828a1.21,1.21,0,0,1-.02-1.717,1.223,1.223,0,0,1,1.747,0c0.81,0.79,1.6,1.6,2.406,2.4,0.095,0.1.2,0.185,0.354,0.333v-0.475q0-6.294,0-12.587a2.672,2.672,0,0,1,.018-0.457,1.221,1.221,0,0,1,2.421.139c0.009,0.127,0,.255,0,0.382v13.032Z" transform="translate(-543 -455)"/>
</svg>
