<svg xmlns="http://www.w3.org/2000/svg" width="17" height="12" viewBox="0 0 17 12">
  <defs>
    <style>
      .cls-1 {
        fill: #b8151a;
        fill-rule: evenodd;
      }
    </style>
  </defs>
  <path id="形狀_8" data-name="形狀 8" class="cls-1" d="M458,706.866h17v0.183q0,2.288,0,4.575A1.292,1.292,0,0,1,473.627,713q-7.127,0-14.252,0a1.293,1.293,0,0,1-1.349-1.037,0.161,0.161,0,0,0-.027-0.039v-5.056Zm9.2,4v-0.972h-3.475v0.972H467.2Zm-4.758-.972h-2.111v0.972h2.111v-0.972ZM458,702.074a0.036,0.036,0,0,0,.013-0.011,1.326,1.326,0,0,1,1.5-1.065h14.074a1.3,1.3,0,0,1,1.329.843,1.049,1.049,0,0,1,.076.337c0.01,0.407,0,.814,0,1.247H458.215c-0.072,0-.144,0-0.216,0v-1.355Zm0,2.346,0.183,0h16.8v1.456H458V704.42Z" transform="translate(-458 -701)"/>
</svg>
