<svg xmlns="http://www.w3.org/2000/svg" width="13.031" height="17" viewBox="0 0 13.031 17">
  <defs>
    <style>
      .cls-1 {
        fill: #b8151a;
        fill-rule: evenodd;
      }
    </style>
  </defs>
  <path id="形狀_12" data-name="形狀 12" class="cls-1" d="M470.024,933.522c-0.282-.028-0.564-0.057-0.847-0.082a1.955,1.955,0,0,0-.431-0.017,0.648,0.648,0,0,0-.353.136c-0.224.215-.42,0.46-0.629,0.691a6.352,6.352,0,0,1-.483.514,1.1,1.1,0,0,1-1.575-.013c-0.218-.2-0.4-0.439-0.6-0.663a3.55,3.55,0,0,1-.234-0.283,0.964,0.964,0,0,0-1.013-.377,7.3,7.3,0,0,1-1.1.073,1.12,1.12,0,0,1-1.177-1.172c-0.011-.356.041-0.714,0.065-1.071a0.688,0.688,0,0,1,.011-0.081,0.99,0.99,0,0,0-.424-1.04,6.447,6.447,0,0,1-.916-0.821,1.1,1.1,0,0,1-.019-1.524,1.782,1.782,0,0,1,.239-0.259c0.239-.208.476-0.42,0.729-0.609a0.948,0.948,0,0,0,.4-0.958c-0.046-.341-0.072-0.686-0.089-1.03a1.746,1.746,0,0,1,.043-0.472,1.09,1.09,0,0,1,1.083-.876c0.381-.007.763,0.04,1.145,0.062a0.338,0.338,0,0,1,.054.009,0.926,0.926,0,0,0,.966-0.364c0.228-.293.473-0.573,0.721-0.848a1.313,1.313,0,0,1,.671-0.415,1.074,1.074,0,0,1,1.033.3c0.256,0.248.478,0.531,0.714,0.8a1.931,1.931,0,0,1,.131.156,0.955,0.955,0,0,0,1,.373,7.3,7.3,0,0,1,1.1-.074,1.126,1.126,0,0,1,1.184,1.207,10.406,10.406,0,0,1-.084,1.221,0.9,0.9,0,0,0,.378.887c0.238,0.181.465,0.375,0.692,0.568a2.261,2.261,0,0,1,.248.251,1.147,1.147,0,0,1-.018,1.652c-0.234.25-.509,0.46-0.767,0.687-0.084.075-.171,0.148-0.259,0.219a0.8,0.8,0,0,0-.281.741c0.034,0.38.074,0.759,0.095,1.139a1.651,1.651,0,0,1-.042.459,1.106,1.106,0,0,1-1.051.884c-0.1.009-.207,0-0.31,0C470.025,933.508,470.025,933.515,470.024,933.522Zm-0.462-7.566a0.463,0.463,0,0,0-.562-0.44,0.681,0.681,0,0,0-.268.17q-1.794,1.8-3.58,3.6l-1.531,1.542a0.429,0.429,0,0,0-.116.473,0.41,0.41,0,0,0,.35.283,0.474,0.474,0,0,0,.417-0.178q2.018-2.036,4.037-4.066c0.354-.357.712-0.71,1.059-1.072A1.768,1.768,0,0,0,469.562,925.956Zm-4.249.74a0.651,0.651,0,0,0-.652-0.657,0.654,0.654,0,0,0,.009,1.307A0.647,0.647,0,0,0,465.313,926.7Zm3.033,3.045a0.648,0.648,0,0,0-.654.653A0.649,0.649,0,1,0,468.346,929.741Zm4.006,7.739-2.042-.324L469.354,939l-1.8-3.6a1.532,1.532,0,0,0,.164-0.13,5,5,0,0,0,.422-0.436c0.037-.043.076-0.086,0.115-0.13,0.07-.078.14-0.159,0.211-0.239,0.115-.132.224-0.26,0.337-0.372l0.03-.006h0.027a1.436,1.436,0,0,1,.162.012l0.1,0.01c0.2,0.018.4,0.037,0.6,0.057l0.935,0.09Zm-7-2.156L463.514,939l-0.958-1.843-2.042.324,1.692-3.388a2.087,2.087,0,0,0,.535.077l0.115,0a8.115,8.115,0,0,0,1.091-.081,1.045,1.045,0,0,1,.139-0.011,0.248,0.248,0,0,1,.248.119,4.217,4.217,0,0,0,.275.334l0.158,0.183a5.952,5.952,0,0,0,.49.529C465.288,935.271,465.319,935.3,465.351,935.324Z" transform="translate(-460 -922)"/>
</svg>
